<?xml version="1.0" encoding="UTF-8" standalone="no"?>
<!-- Created with Inkscape (http://www.inkscape.org/) -->

<svg
   xmlns:dc="http://purl.org/dc/elements/1.1/"
   xmlns:cc="http://creativecommons.org/ns#"
   xmlns:rdf="http://www.w3.org/1999/02/22-rdf-syntax-ns#"
   xmlns:svg="http://www.w3.org/2000/svg"
   xmlns="http://www.w3.org/2000/svg"
   xmlns:sodipodi="http://sodipodi.sourceforge.net/DTD/sodipodi-0.dtd"
   xmlns:inkscape="http://www.inkscape.org/namespaces/inkscape"
   width="19.843746mm"
   height="18.410114mm"
   viewBox="0 0 19.843746 18.410114"
   version="1.1"
   id="svg8"
   inkscape:version="0.92.2 (5c3e80d, 2017-08-06)"
   sodipodi:docname="drawing.svg">
  <defs
     id="defs2">
    <pattern
       id="EMFhbasepattern"
       patternUnits="userSpaceOnUse"
       width="6"
       height="6"
       x="0"
       y="0" />
  </defs>
  <sodipodi:namedview
     id="base"
     pagecolor="#ffffff"
     bordercolor="#666666"
     borderopacity="1.0"
     inkscape:pageopacity="0.0"
     inkscape:pageshadow="2"
     inkscape:zoom="1.979899"
     inkscape:cx="86.476949"
     inkscape:cy="-131.47831"
     inkscape:document-units="mm"
     inkscape:current-layer="layer1"
     showgrid="false"
     fit-margin-top="0"
     fit-margin-left="0"
     fit-margin-right="0"
     fit-margin-bottom="0"
     inkscape:window-width="2560"
     inkscape:window-height="1490"
     inkscape:window-x="-12"
     inkscape:window-y="-12"
     inkscape:window-maximized="1" />
  <metadata
     id="metadata5">
    <rdf:RDF>
      <cc:Work
         rdf:about="">
        <dc:format>image/svg+xml</dc:format>
        <dc:type
           rdf:resource="http://purl.org/dc/dcmitype/StillImage" />
        <dc:title></dc:title>
      </cc:Work>
    </rdf:RDF>
  </metadata>
  <g
     inkscape:label="Layer 1"
     inkscape:groupmode="layer"
     id="layer1"
     transform="translate(-82.952974,-74.254686)">
    <path
       style="display:inline;fill:#ffffff;fill-opacity:1;fill-rule:nonzero;stroke:none;stroke-width:0.26458332"
       d="m 97.131821,74.254686 c -3.127811,0 -5.663241,2.535433 -5.663241,5.663245 0,0.434742 0.04812,0.854553 0.141041,1.259429 l -8.656647,8.654989 v 1.415386 l 1.415397,1.417066 h 2.832461 l 1.415386,-1.417066 v -1.415386 h 1.417066 v -1.415407 h 1.415385 v -1.417044 h 2.832449 l 1.566406,-1.566405 c 0.413173,0.09624 0.842917,0.146021 1.284297,0.146021 3.129469,0 5.664899,-2.535431 5.664899,-5.663242 0,-3.127815 -2.53875,-5.661586 -5.664899,-5.661586 z m -5.683152,9.914421 -7.080298,7.078628 v -1.415386 l 7.080298,-7.080308 z m 7.080307,-4.247859 c -0.781544,0 -1.417066,-0.635521 -1.417066,-1.417044 0,-0.779884 0.635522,-1.415407 1.417066,-1.415407 0.779883,0 1.415386,0.635523 1.415386,1.415407 0,0.781523 -0.635503,1.417044 -1.415386,1.417044 z"
       id="path4182-2"
       inkscape:connector-curvature="0" />
  </g>
</svg>
